# xmcd
#
# Track frame offsets: 
#        150
#        18585
#        32780
#        63064
#        75259
#        97284
#        114064
#        127696
#        151363
#        164492
#        179749
#        206646
#        222459
#        235119
#        263976
#
# Disc length: 3787 seconds
#
# Revision: 0
# Processed by: cddbd v1.5.2PL0 Copyright (c) Steve Scherf et al.
# Submitted via: ExactAudioCopy v1.3
#
DISCID=c70ec90f
DTITLE=Willie Cobbs - Butler Boy Blues
DYEAR=2019
DGENRE=Blues
TTITLE0=My Baby Walked Away
TTITLE1=Good Lovin'
TTITLE2=Butler Boy Blues
TTITLE3=I Wanna Make Love to You
TTITLE4=Mississippi
TTITLE5=If You Don't Know What Love Is
TTITLE6=Slow Down Baby
TTITLE7=Carnation Milk
TTITLE8=She Is Not the One
TTITLE9=Eatin' Dry Onions
TTITLE10=Amnesia
TTITLE11=Testing
TTITLE12=Candidate
TTITLE13=Jukin'
TTITLE14=11 Months and 29 Days
EXTD=
EXTT0=
EXTT1=
EXTT2=
EXTT3=
EXTT4=
EXTT5=
EXTT6=
EXTT7=
EXTT8=
EXTT9=
EXTT10=
EXTT11=
EXTT12=
EXTT13=
EXTT14=
PLAYORDER=
